# xmcd
#
# Track frame offsets:
#	150
#	17407
#	33848
#	54029
#	71038
#	89842
#	96502
#	115750
#	131681
#	145549
#	160460
#	173707
#	192927
#	208258
#	225957
#	251602
#	267858
#	286730
#	301928
#	318296
#
# Disc length: 4327 seconds
#
# Revision: 0
# Processed by: cddbd v1.5.1PL2 Copyright (c) Steve Scherf et al.
# Submitted via: audiograbber 1.83.01
#
DISCID=0f10e514
DTITLE=Glenn Miller Orchestra - 20 Greatest Hits Live
DYEAR=1992
DGENRE=Big Band
TTITLE0=In The Mood
TTITLE1=Rhapsody In Blue
TTITLE2=I've Got A Gal In Kalamazoo
TTITLE3=Song of the Volga Boatmen
TTITLE4=I Get A Kick Out Of You
TTITLE5=Hot Diggity
TTITLE6=The American Patrol
TTITLE7=Easy To Love
TTITLE8=Laura
TTITLE9=Pennsylvania 6-5000
TTITLE10=Don't Take Your Love From Me
TTITLE11=I'm In Love Again
TTITLE12=Bugle Call Rag
TTITLE13=Stardust
TTITLE14=The Lonely One
TTITLE15=Hallelujah I Love Her
TTITLE16=When Your Lover Has Gone
TTITLE17=Chattanooga Choo-Choo
TTITLE18=Anvil Chorus
TTITLE19=Moonlight Serenade
EXTD=Onyx Classic 260183
EXTT0=
EXTT1=
EXTT2=
EXTT3=
EXTT4=
EXTT5=
EXTT6=
EXTT7=
EXTT8=
EXTT9=
EXTT10=
EXTT11=
EXTT12=
EXTT13=
EXTT14=
EXTT15=
EXTT16=
EXTT17=
EXTT18=
EXTT19=
PLAYORDER=
